<mxfile host="app.diagrams.net" modified="2023-12-21T06:06:11.205Z" agent="Mozilla/5.0 (Macintosh; Intel Mac OS X 10_15_7) AppleWebKit/537.36 (KHTML, like Gecko) Chrome/117.0.0.0 Safari/537.36" etag="GlkEpUNkMGAYqvH3hyiF" version="22.1.11" type="device">
  <diagram name="페이지-1" id="rzwskQOxDHPktsXhggRO">
    <mxGraphModel dx="2311" dy="1215" grid="0" gridSize="10" guides="1" tooltips="1" connect="1" arrows="1" fold="1" page="0" pageScale="1" pageWidth="827" pageHeight="1169" math="0" shadow="0">
      <root>
        <mxCell id="0" />
        <mxCell id="1" parent="0" />
        <mxCell id="45Yy-R2dAYlG4YcCM_-h-193" value="" style="rounded=0;whiteSpace=wrap;html=1;fillColor=none;strokeColor=#FFFFFF;" vertex="1" parent="1">
          <mxGeometry x="-195" y="285" width="1590" height="1030" as="geometry" />
        </mxCell>
        <mxCell id="45Yy-R2dAYlG4YcCM_-h-192" value="" style="rounded=0;whiteSpace=wrap;html=1;fillColor=none;strokeWidth=2;" vertex="1" parent="1">
          <mxGeometry x="-30" y="330" width="1290" height="930" as="geometry" />
        </mxCell>
        <mxCell id="_SVUlnc3Oly2EVvix183-1" value="사용자" style="shape=umlActor;verticalLabelPosition=bottom;verticalAlign=top;html=1;" parent="1" vertex="1">
          <mxGeometry x="-120" y="460" width="30" height="60" as="geometry" />
        </mxCell>
        <mxCell id="_SVUlnc3Oly2EVvix183-15" value="회원가입" style="ellipse;whiteSpace=wrap;html=1;movable=1;resizable=1;rotatable=1;deletable=1;editable=1;locked=0;connectable=1;" parent="1" vertex="1">
          <mxGeometry x="10" y="360" width="120" height="40" as="geometry" />
        </mxCell>
        <mxCell id="_SVUlnc3Oly2EVvix183-14" value="비밀번호/아이디&lt;br&gt;찾기" style="ellipse;whiteSpace=wrap;html=1;movable=1;resizable=1;rotatable=1;deletable=1;editable=1;locked=0;connectable=1;" parent="1" vertex="1">
          <mxGeometry x="10" y="420" width="120" height="40" as="geometry" />
        </mxCell>
        <mxCell id="_SVUlnc3Oly2EVvix183-45" style="rounded=0;orthogonalLoop=1;jettySize=auto;html=1;exitX=0.5;exitY=1;exitDx=0;exitDy=0;endArrow=none;endFill=0;" parent="1" source="_SVUlnc3Oly2EVvix183-3" target="_SVUlnc3Oly2EVvix183-27" edge="1">
          <mxGeometry relative="1" as="geometry" />
        </mxCell>
        <mxCell id="_SVUlnc3Oly2EVvix183-3" value="로그인" style="ellipse;whiteSpace=wrap;html=1;movable=1;resizable=1;rotatable=1;deletable=1;editable=1;locked=0;connectable=1;" parent="1" vertex="1">
          <mxGeometry x="10" y="480" width="120" height="40" as="geometry" />
        </mxCell>
        <mxCell id="_SVUlnc3Oly2EVvix183-20" value="성공/실패&lt;br&gt;여부" style="ellipse;whiteSpace=wrap;html=1;movable=1;resizable=1;rotatable=1;deletable=1;editable=1;locked=0;connectable=1;" parent="1" vertex="1">
          <mxGeometry x="220" y="360" width="120" height="40" as="geometry" />
        </mxCell>
        <mxCell id="_SVUlnc3Oly2EVvix183-22" value="include" style="endArrow=open;endSize=12;dashed=1;html=1;rounded=0;exitX=1;exitY=0.5;exitDx=0;exitDy=0;entryX=0;entryY=0.5;entryDx=0;entryDy=0;" parent="1" source="_SVUlnc3Oly2EVvix183-15" target="_SVUlnc3Oly2EVvix183-20" edge="1">
          <mxGeometry width="160" relative="1" as="geometry">
            <mxPoint x="250" y="510" as="sourcePoint" />
            <mxPoint x="410" y="510" as="targetPoint" />
          </mxGeometry>
        </mxCell>
        <mxCell id="_SVUlnc3Oly2EVvix183-23" value="성공/실패&lt;br&gt;여부" style="ellipse;whiteSpace=wrap;html=1;movable=1;resizable=1;rotatable=1;deletable=1;editable=1;locked=0;connectable=1;" parent="1" vertex="1">
          <mxGeometry x="220" y="420" width="120" height="40" as="geometry" />
        </mxCell>
        <mxCell id="_SVUlnc3Oly2EVvix183-24" value="include" style="endArrow=open;endSize=12;dashed=1;html=1;rounded=0;exitX=1;exitY=0.5;exitDx=0;exitDy=0;entryX=0;entryY=0.5;entryDx=0;entryDy=0;" parent="1" source="_SVUlnc3Oly2EVvix183-14" target="_SVUlnc3Oly2EVvix183-23" edge="1">
          <mxGeometry width="160" relative="1" as="geometry">
            <mxPoint x="130" y="439.5" as="sourcePoint" />
            <mxPoint x="190" y="430" as="targetPoint" />
          </mxGeometry>
        </mxCell>
        <mxCell id="_SVUlnc3Oly2EVvix183-25" value="유효성 검사" style="ellipse;whiteSpace=wrap;html=1;movable=1;resizable=1;rotatable=1;deletable=1;editable=1;locked=0;connectable=1;" parent="1" vertex="1">
          <mxGeometry x="220" y="480" width="120" height="40" as="geometry" />
        </mxCell>
        <mxCell id="_SVUlnc3Oly2EVvix183-26" value="include" style="endArrow=open;endSize=12;dashed=1;html=1;rounded=0;exitX=1;exitY=0.5;exitDx=0;exitDy=0;entryX=0;entryY=0.5;entryDx=0;entryDy=0;" parent="1" source="_SVUlnc3Oly2EVvix183-3" target="_SVUlnc3Oly2EVvix183-25" edge="1">
          <mxGeometry width="160" relative="1" as="geometry">
            <mxPoint x="130" y="500" as="sourcePoint" />
            <mxPoint x="190" y="490" as="targetPoint" />
          </mxGeometry>
        </mxCell>
        <mxCell id="_SVUlnc3Oly2EVvix183-27" value="메인화면" style="ellipse;whiteSpace=wrap;html=1;" parent="1" vertex="1">
          <mxGeometry x="10" y="590" width="120" height="40" as="geometry" />
        </mxCell>
        <mxCell id="_SVUlnc3Oly2EVvix183-28" value="마이페이지" style="ellipse;whiteSpace=wrap;html=1;" parent="1" vertex="1">
          <mxGeometry x="190" y="800" width="120" height="40" as="geometry" />
        </mxCell>
        <mxCell id="_SVUlnc3Oly2EVvix183-29" value="상품판매" style="ellipse;whiteSpace=wrap;html=1;" parent="1" vertex="1">
          <mxGeometry x="540" y="590" width="120" height="40" as="geometry" />
        </mxCell>
        <mxCell id="_SVUlnc3Oly2EVvix183-43" value="상품거래" style="ellipse;whiteSpace=wrap;html=1;" parent="1" vertex="1">
          <mxGeometry x="280" y="590" width="120" height="40" as="geometry" />
        </mxCell>
        <mxCell id="_SVUlnc3Oly2EVvix183-47" value="include" style="endArrow=open;endSize=12;dashed=1;html=1;rounded=0;exitX=0;exitY=0;exitDx=0;exitDy=0;entryX=1;entryY=1;entryDx=0;entryDy=0;" parent="1" source="_SVUlnc3Oly2EVvix183-43" target="_SVUlnc3Oly2EVvix183-3" edge="1">
          <mxGeometry width="160" relative="1" as="geometry">
            <mxPoint x="140" y="510" as="sourcePoint" />
            <mxPoint x="230" y="510" as="targetPoint" />
          </mxGeometry>
        </mxCell>
        <mxCell id="_SVUlnc3Oly2EVvix183-48" value="include" style="endArrow=open;endSize=12;dashed=1;html=1;rounded=0;exitX=0;exitY=0;exitDx=0;exitDy=0;entryX=1;entryY=1;entryDx=0;entryDy=0;" parent="1" source="_SVUlnc3Oly2EVvix183-29" target="_SVUlnc3Oly2EVvix183-3" edge="1">
          <mxGeometry width="160" relative="1" as="geometry">
            <mxPoint x="276" y="590" as="sourcePoint" />
            <mxPoint x="190" y="508" as="targetPoint" />
          </mxGeometry>
        </mxCell>
        <mxCell id="_SVUlnc3Oly2EVvix183-49" value="include" style="endArrow=open;endSize=12;dashed=1;html=1;rounded=0;exitX=0.5;exitY=0;exitDx=0;exitDy=0;entryX=1;entryY=1;entryDx=0;entryDy=0;" parent="1" source="_SVUlnc3Oly2EVvix183-28" target="_SVUlnc3Oly2EVvix183-3" edge="1">
          <mxGeometry width="160" relative="1" as="geometry">
            <mxPoint x="368" y="606" as="sourcePoint" />
            <mxPoint x="122" y="524" as="targetPoint" />
          </mxGeometry>
        </mxCell>
        <mxCell id="_SVUlnc3Oly2EVvix183-50" value="상품수정/삭제" style="ellipse;whiteSpace=wrap;html=1;" parent="1" vertex="1">
          <mxGeometry x="660" y="650" width="70" height="40" as="geometry" />
        </mxCell>
        <mxCell id="_SVUlnc3Oly2EVvix183-51" value="상품등록" style="ellipse;whiteSpace=wrap;html=1;" parent="1" vertex="1">
          <mxGeometry x="660" y="700" width="70" height="40" as="geometry" />
        </mxCell>
        <mxCell id="_SVUlnc3Oly2EVvix183-52" value="include" style="endArrow=open;endSize=12;dashed=1;html=1;rounded=0;exitX=0.5;exitY=1;exitDx=0;exitDy=0;entryX=0;entryY=0.5;entryDx=0;entryDy=0;edgeStyle=orthogonalEdgeStyle;" parent="1" source="_SVUlnc3Oly2EVvix183-29" target="_SVUlnc3Oly2EVvix183-50" edge="1">
          <mxGeometry x="-0.4286" width="160" relative="1" as="geometry">
            <mxPoint x="408" y="786" as="sourcePoint" />
            <mxPoint x="322" y="524" as="targetPoint" />
            <mxPoint as="offset" />
          </mxGeometry>
        </mxCell>
        <mxCell id="_SVUlnc3Oly2EVvix183-53" value="include" style="endArrow=open;endSize=12;dashed=1;html=1;rounded=0;exitX=0.5;exitY=1;exitDx=0;exitDy=0;entryX=0;entryY=0.5;entryDx=0;entryDy=0;edgeStyle=orthogonalEdgeStyle;" parent="1" source="_SVUlnc3Oly2EVvix183-29" target="_SVUlnc3Oly2EVvix183-51" edge="1">
          <mxGeometry x="0.1667" width="160" relative="1" as="geometry">
            <mxPoint x="610" y="640" as="sourcePoint" />
            <mxPoint x="640" y="680" as="targetPoint" />
            <mxPoint as="offset" />
          </mxGeometry>
        </mxCell>
        <mxCell id="45Yy-R2dAYlG4YcCM_-h-1" value="채팅" style="ellipse;whiteSpace=wrap;html=1;" vertex="1" parent="1">
          <mxGeometry x="400" y="650" width="70" height="40" as="geometry" />
        </mxCell>
        <mxCell id="45Yy-R2dAYlG4YcCM_-h-2" value="안전거래 걸제" style="ellipse;whiteSpace=wrap;html=1;" vertex="1" parent="1">
          <mxGeometry x="400" y="700" width="70" height="40" as="geometry" />
        </mxCell>
        <mxCell id="45Yy-R2dAYlG4YcCM_-h-3" value="include" style="endArrow=open;endSize=12;dashed=1;html=1;rounded=0;exitX=0.5;exitY=1;exitDx=0;exitDy=0;entryX=0;entryY=0.5;entryDx=0;entryDy=0;edgeStyle=orthogonalEdgeStyle;" edge="1" parent="1" source="_SVUlnc3Oly2EVvix183-43" target="45Yy-R2dAYlG4YcCM_-h-1">
          <mxGeometry x="-0.6" width="160" relative="1" as="geometry">
            <mxPoint x="610" y="640" as="sourcePoint" />
            <mxPoint x="670" y="730" as="targetPoint" />
            <mxPoint as="offset" />
          </mxGeometry>
        </mxCell>
        <mxCell id="45Yy-R2dAYlG4YcCM_-h-4" value="include" style="endArrow=open;endSize=12;dashed=1;html=1;rounded=0;exitX=0.5;exitY=1;exitDx=0;exitDy=0;entryX=0;entryY=0.5;entryDx=0;entryDy=0;edgeStyle=orthogonalEdgeStyle;" edge="1" parent="1" source="_SVUlnc3Oly2EVvix183-43" target="45Yy-R2dAYlG4YcCM_-h-2">
          <mxGeometry x="0.2" y="20" width="160" relative="1" as="geometry">
            <mxPoint x="350" y="640" as="sourcePoint" />
            <mxPoint x="410" y="680" as="targetPoint" />
            <mxPoint as="offset" />
          </mxGeometry>
        </mxCell>
        <mxCell id="45Yy-R2dAYlG4YcCM_-h-7" style="rounded=0;orthogonalLoop=1;jettySize=auto;html=1;entryX=0.5;entryY=1;entryDx=0;entryDy=0;endArrow=none;endFill=0;" edge="1" parent="1" source="45Yy-R2dAYlG4YcCM_-h-5" target="_SVUlnc3Oly2EVvix183-27">
          <mxGeometry relative="1" as="geometry" />
        </mxCell>
        <mxCell id="45Yy-R2dAYlG4YcCM_-h-5" value="상품상세" style="ellipse;whiteSpace=wrap;html=1;" vertex="1" parent="1">
          <mxGeometry x="100" y="670" width="70" height="40" as="geometry" />
        </mxCell>
        <mxCell id="45Yy-R2dAYlG4YcCM_-h-10" style="rounded=0;orthogonalLoop=1;jettySize=auto;html=1;entryX=0.5;entryY=1;entryDx=0;entryDy=0;endArrow=none;endFill=0;" edge="1" parent="1" source="45Yy-R2dAYlG4YcCM_-h-8" target="_SVUlnc3Oly2EVvix183-27">
          <mxGeometry relative="1" as="geometry" />
        </mxCell>
        <mxCell id="45Yy-R2dAYlG4YcCM_-h-8" value="이벤트" style="ellipse;whiteSpace=wrap;html=1;" vertex="1" parent="1">
          <mxGeometry y="670" width="70" height="40" as="geometry" />
        </mxCell>
        <mxCell id="45Yy-R2dAYlG4YcCM_-h-11" style="rounded=0;orthogonalLoop=1;jettySize=auto;html=1;entryX=0.5;entryY=1;entryDx=0;entryDy=0;endArrow=none;endFill=0;" edge="1" parent="1" source="45Yy-R2dAYlG4YcCM_-h-9" target="_SVUlnc3Oly2EVvix183-27">
          <mxGeometry relative="1" as="geometry" />
        </mxCell>
        <mxCell id="45Yy-R2dAYlG4YcCM_-h-9" value="사기조회" style="ellipse;whiteSpace=wrap;html=1;" vertex="1" parent="1">
          <mxGeometry x="60" y="730" width="70" height="40" as="geometry" />
        </mxCell>
        <mxCell id="45Yy-R2dAYlG4YcCM_-h-13" value="extend" style="endArrow=open;endSize=12;dashed=1;html=1;rounded=0;exitX=0;exitY=1;exitDx=0;exitDy=0;entryX=1;entryY=0.5;entryDx=0;entryDy=0;" edge="1" parent="1" source="_SVUlnc3Oly2EVvix183-43" target="45Yy-R2dAYlG4YcCM_-h-5">
          <mxGeometry width="160" relative="1" as="geometry">
            <mxPoint x="308" y="606" as="sourcePoint" />
            <mxPoint x="122" y="524" as="targetPoint" />
          </mxGeometry>
        </mxCell>
        <mxCell id="45Yy-R2dAYlG4YcCM_-h-15" value="판매내역" style="ellipse;whiteSpace=wrap;html=1;" vertex="1" parent="1">
          <mxGeometry x="400" y="840" width="70" height="40" as="geometry" />
        </mxCell>
        <mxCell id="45Yy-R2dAYlG4YcCM_-h-118" value="구매내역" style="ellipse;whiteSpace=wrap;html=1;" vertex="1" parent="1">
          <mxGeometry x="400" y="780" width="70" height="40" as="geometry" />
        </mxCell>
        <mxCell id="45Yy-R2dAYlG4YcCM_-h-122" value="안전거래 취소" style="ellipse;whiteSpace=wrap;html=1;" vertex="1" parent="1">
          <mxGeometry x="550" y="780" width="70" height="40" as="geometry" />
        </mxCell>
        <mxCell id="45Yy-R2dAYlG4YcCM_-h-155" style="edgeStyle=orthogonalEdgeStyle;rounded=0;orthogonalLoop=1;jettySize=auto;html=1;entryX=1;entryY=0.5;entryDx=0;entryDy=0;endArrow=none;endFill=0;" edge="1" parent="1" source="45Yy-R2dAYlG4YcCM_-h-123" target="_SVUlnc3Oly2EVvix183-50">
          <mxGeometry relative="1" as="geometry">
            <Array as="points">
              <mxPoint x="770" y="860" />
              <mxPoint x="770" y="670" />
            </Array>
          </mxGeometry>
        </mxCell>
        <mxCell id="45Yy-R2dAYlG4YcCM_-h-123" value="판매완료" style="ellipse;whiteSpace=wrap;html=1;" vertex="1" parent="1">
          <mxGeometry x="550" y="840" width="70" height="40" as="geometry" />
        </mxCell>
        <mxCell id="45Yy-R2dAYlG4YcCM_-h-128" value="include" style="endArrow=open;endSize=12;dashed=1;html=1;rounded=0;exitX=1;exitY=0.5;exitDx=0;exitDy=0;entryX=0;entryY=0.5;entryDx=0;entryDy=0;" edge="1" parent="1" source="_SVUlnc3Oly2EVvix183-28" target="45Yy-R2dAYlG4YcCM_-h-118">
          <mxGeometry width="160" relative="1" as="geometry">
            <mxPoint x="308" y="606" as="sourcePoint" />
            <mxPoint x="320" y="760" as="targetPoint" />
          </mxGeometry>
        </mxCell>
        <mxCell id="45Yy-R2dAYlG4YcCM_-h-129" value="include" style="endArrow=open;endSize=12;dashed=1;html=1;rounded=0;entryX=0;entryY=0.5;entryDx=0;entryDy=0;exitX=1;exitY=0.5;exitDx=0;exitDy=0;" edge="1" parent="1" source="_SVUlnc3Oly2EVvix183-28" target="45Yy-R2dAYlG4YcCM_-h-15">
          <mxGeometry width="160" relative="1" as="geometry">
            <mxPoint x="270" y="910" as="sourcePoint" />
            <mxPoint x="320" y="830" as="targetPoint" />
          </mxGeometry>
        </mxCell>
        <mxCell id="45Yy-R2dAYlG4YcCM_-h-130" value="include" style="endArrow=open;endSize=12;dashed=1;html=1;rounded=0;entryX=0;entryY=0.5;entryDx=0;entryDy=0;exitX=1;exitY=0.5;exitDx=0;exitDy=0;" edge="1" parent="1" source="45Yy-R2dAYlG4YcCM_-h-118" target="45Yy-R2dAYlG4YcCM_-h-122">
          <mxGeometry width="160" relative="1" as="geometry">
            <mxPoint x="320" y="910" as="sourcePoint" />
            <mxPoint x="320" y="830" as="targetPoint" />
          </mxGeometry>
        </mxCell>
        <mxCell id="45Yy-R2dAYlG4YcCM_-h-131" value="include" style="endArrow=open;endSize=12;dashed=1;html=1;rounded=0;entryX=0;entryY=0.5;entryDx=0;entryDy=0;exitX=1;exitY=0.5;exitDx=0;exitDy=0;" edge="1" parent="1" source="45Yy-R2dAYlG4YcCM_-h-15" target="45Yy-R2dAYlG4YcCM_-h-123">
          <mxGeometry width="160" relative="1" as="geometry">
            <mxPoint x="460" y="810" as="sourcePoint" />
            <mxPoint x="520" y="810" as="targetPoint" />
          </mxGeometry>
        </mxCell>
        <mxCell id="45Yy-R2dAYlG4YcCM_-h-119" value="내 정보" style="ellipse;whiteSpace=wrap;html=1;" vertex="1" parent="1">
          <mxGeometry x="215" y="930" width="70" height="40" as="geometry" />
        </mxCell>
        <mxCell id="45Yy-R2dAYlG4YcCM_-h-120" value="1:1 문의" style="ellipse;whiteSpace=wrap;html=1;" vertex="1" parent="1">
          <mxGeometry x="400" y="930" width="70" height="40" as="geometry" />
        </mxCell>
        <mxCell id="45Yy-R2dAYlG4YcCM_-h-137" style="edgeStyle=orthogonalEdgeStyle;rounded=0;orthogonalLoop=1;jettySize=auto;html=1;entryX=0.5;entryY=1;entryDx=0;entryDy=0;endArrow=none;endFill=0;" edge="1" parent="1" source="45Yy-R2dAYlG4YcCM_-h-121" target="45Yy-R2dAYlG4YcCM_-h-5">
          <mxGeometry relative="1" as="geometry">
            <Array as="points">
              <mxPoint x="65" y="840" />
              <mxPoint x="140" y="840" />
              <mxPoint x="140" y="710" />
            </Array>
          </mxGeometry>
        </mxCell>
        <mxCell id="45Yy-R2dAYlG4YcCM_-h-121" value="찜" style="ellipse;whiteSpace=wrap;html=1;" vertex="1" parent="1">
          <mxGeometry x="30" y="930" width="70" height="40" as="geometry" />
        </mxCell>
        <mxCell id="45Yy-R2dAYlG4YcCM_-h-132" value="include" style="endArrow=open;endSize=12;dashed=1;html=1;rounded=0;entryX=0.5;entryY=0;entryDx=0;entryDy=0;exitX=0.5;exitY=1;exitDx=0;exitDy=0;" edge="1" parent="1" source="_SVUlnc3Oly2EVvix183-28" target="45Yy-R2dAYlG4YcCM_-h-119">
          <mxGeometry width="160" relative="1" as="geometry">
            <mxPoint x="470" y="820" as="sourcePoint" />
            <mxPoint x="530" y="820" as="targetPoint" />
          </mxGeometry>
        </mxCell>
        <mxCell id="45Yy-R2dAYlG4YcCM_-h-133" value="include" style="endArrow=open;endSize=12;dashed=1;html=1;rounded=0;entryX=0;entryY=0;entryDx=0;entryDy=0;exitX=0.5;exitY=1;exitDx=0;exitDy=0;" edge="1" parent="1" source="_SVUlnc3Oly2EVvix183-28" target="45Yy-R2dAYlG4YcCM_-h-120">
          <mxGeometry width="160" relative="1" as="geometry">
            <mxPoint x="260" y="850" as="sourcePoint" />
            <mxPoint x="255" y="940" as="targetPoint" />
          </mxGeometry>
        </mxCell>
        <mxCell id="45Yy-R2dAYlG4YcCM_-h-134" value="include" style="endArrow=open;endSize=12;dashed=1;html=1;rounded=0;entryX=1;entryY=0;entryDx=0;entryDy=0;exitX=0.5;exitY=1;exitDx=0;exitDy=0;" edge="1" parent="1" source="_SVUlnc3Oly2EVvix183-28" target="45Yy-R2dAYlG4YcCM_-h-121">
          <mxGeometry width="160" relative="1" as="geometry">
            <mxPoint x="270" y="860" as="sourcePoint" />
            <mxPoint x="265" y="950" as="targetPoint" />
          </mxGeometry>
        </mxCell>
        <mxCell id="45Yy-R2dAYlG4YcCM_-h-135" value="찜상품 삭제" style="ellipse;whiteSpace=wrap;html=1;" vertex="1" parent="1">
          <mxGeometry x="30" y="1040" width="70" height="40" as="geometry" />
        </mxCell>
        <mxCell id="45Yy-R2dAYlG4YcCM_-h-138" value="include" style="endArrow=open;endSize=12;dashed=1;html=1;rounded=0;entryX=0.5;entryY=0;entryDx=0;entryDy=0;exitX=0.5;exitY=1;exitDx=0;exitDy=0;" edge="1" parent="1" source="45Yy-R2dAYlG4YcCM_-h-121" target="45Yy-R2dAYlG4YcCM_-h-135">
          <mxGeometry width="160" relative="1" as="geometry">
            <mxPoint x="260" y="850" as="sourcePoint" />
            <mxPoint x="100" y="946" as="targetPoint" />
          </mxGeometry>
        </mxCell>
        <mxCell id="45Yy-R2dAYlG4YcCM_-h-139" value="비밀번호&lt;br&gt;확인 및 수정" style="ellipse;whiteSpace=wrap;html=1;" vertex="1" parent="1">
          <mxGeometry x="300" y="1190" width="70" height="40" as="geometry" />
        </mxCell>
        <mxCell id="45Yy-R2dAYlG4YcCM_-h-140" value="개인정보&lt;br&gt;수정" style="ellipse;whiteSpace=wrap;html=1;" vertex="1" parent="1">
          <mxGeometry x="300" y="1100" width="70" height="40" as="geometry" />
        </mxCell>
        <mxCell id="45Yy-R2dAYlG4YcCM_-h-141" value="탈퇴" style="ellipse;whiteSpace=wrap;html=1;" vertex="1" parent="1">
          <mxGeometry x="150" y="1100" width="70" height="40" as="geometry" />
        </mxCell>
        <mxCell id="45Yy-R2dAYlG4YcCM_-h-142" value="탈퇴완료" style="ellipse;whiteSpace=wrap;html=1;" vertex="1" parent="1">
          <mxGeometry x="150" y="1190" width="70" height="40" as="geometry" />
        </mxCell>
        <mxCell id="45Yy-R2dAYlG4YcCM_-h-143" value="include" style="endArrow=open;endSize=12;dashed=1;html=1;rounded=0;entryX=0.5;entryY=0;entryDx=0;entryDy=0;exitX=0.5;exitY=1;exitDx=0;exitDy=0;" edge="1" parent="1" source="45Yy-R2dAYlG4YcCM_-h-141" target="45Yy-R2dAYlG4YcCM_-h-142">
          <mxGeometry width="160" relative="1" as="geometry">
            <mxPoint x="80" y="1080" as="sourcePoint" />
            <mxPoint x="80" y="1150" as="targetPoint" />
          </mxGeometry>
        </mxCell>
        <mxCell id="45Yy-R2dAYlG4YcCM_-h-150" value="비밀번호 입력" style="ellipse;whiteSpace=wrap;html=1;" vertex="1" parent="1">
          <mxGeometry x="215" y="1020" width="70" height="40" as="geometry" />
        </mxCell>
        <mxCell id="45Yy-R2dAYlG4YcCM_-h-151" value="include" style="endArrow=open;endSize=12;dashed=1;html=1;rounded=0;entryX=0.5;entryY=0;entryDx=0;entryDy=0;exitX=0.5;exitY=1;exitDx=0;exitDy=0;" edge="1" parent="1" source="45Yy-R2dAYlG4YcCM_-h-119" target="45Yy-R2dAYlG4YcCM_-h-150">
          <mxGeometry width="160" relative="1" as="geometry">
            <mxPoint x="75" y="980" as="sourcePoint" />
            <mxPoint x="75" y="1050" as="targetPoint" />
          </mxGeometry>
        </mxCell>
        <mxCell id="45Yy-R2dAYlG4YcCM_-h-152" value="extend" style="endArrow=open;endSize=12;dashed=1;html=1;rounded=0;exitX=0.5;exitY=0;exitDx=0;exitDy=0;entryX=0.5;entryY=1;entryDx=0;entryDy=0;" edge="1" parent="1" source="45Yy-R2dAYlG4YcCM_-h-139" target="45Yy-R2dAYlG4YcCM_-h-140">
          <mxGeometry width="160" relative="1" as="geometry">
            <mxPoint x="303" y="644" as="sourcePoint" />
            <mxPoint x="175" y="710" as="targetPoint" />
          </mxGeometry>
        </mxCell>
        <mxCell id="45Yy-R2dAYlG4YcCM_-h-153" value="include" style="endArrow=open;endSize=12;dashed=1;html=1;rounded=0;entryX=0.5;entryY=0;entryDx=0;entryDy=0;exitX=0;exitY=1;exitDx=0;exitDy=0;" edge="1" parent="1" source="45Yy-R2dAYlG4YcCM_-h-150" target="45Yy-R2dAYlG4YcCM_-h-141">
          <mxGeometry width="160" relative="1" as="geometry">
            <mxPoint x="195" y="1140" as="sourcePoint" />
            <mxPoint x="195" y="1190" as="targetPoint" />
          </mxGeometry>
        </mxCell>
        <mxCell id="45Yy-R2dAYlG4YcCM_-h-154" value="include" style="endArrow=open;endSize=12;dashed=1;html=1;rounded=0;entryX=0;entryY=0;entryDx=0;entryDy=0;exitX=1;exitY=1;exitDx=0;exitDy=0;" edge="1" parent="1" source="45Yy-R2dAYlG4YcCM_-h-150" target="45Yy-R2dAYlG4YcCM_-h-140">
          <mxGeometry width="160" relative="1" as="geometry">
            <mxPoint x="235" y="1064" as="sourcePoint" />
            <mxPoint x="195" y="1100" as="targetPoint" />
          </mxGeometry>
        </mxCell>
        <mxCell id="45Yy-R2dAYlG4YcCM_-h-156" value="1:1 문의&lt;br&gt;등록" style="ellipse;whiteSpace=wrap;html=1;" vertex="1" parent="1">
          <mxGeometry x="550" y="930" width="70" height="40" as="geometry" />
        </mxCell>
        <mxCell id="45Yy-R2dAYlG4YcCM_-h-157" value="1:1 문의&lt;br&gt;수정/삭제" style="ellipse;whiteSpace=wrap;html=1;" vertex="1" parent="1">
          <mxGeometry x="550" y="990" width="70" height="40" as="geometry" />
        </mxCell>
        <mxCell id="45Yy-R2dAYlG4YcCM_-h-158" value="include" style="endArrow=open;endSize=12;dashed=1;html=1;rounded=0;entryX=0;entryY=0.5;entryDx=0;entryDy=0;exitX=1;exitY=0.5;exitDx=0;exitDy=0;" edge="1" parent="1" source="45Yy-R2dAYlG4YcCM_-h-120" target="45Yy-R2dAYlG4YcCM_-h-156">
          <mxGeometry width="160" relative="1" as="geometry">
            <mxPoint x="260" y="850" as="sourcePoint" />
            <mxPoint x="420" y="946" as="targetPoint" />
          </mxGeometry>
        </mxCell>
        <mxCell id="45Yy-R2dAYlG4YcCM_-h-159" value="include" style="endArrow=open;endSize=12;dashed=1;html=1;rounded=0;entryX=0;entryY=0.5;entryDx=0;entryDy=0;exitX=1;exitY=0.5;exitDx=0;exitDy=0;" edge="1" parent="1" source="45Yy-R2dAYlG4YcCM_-h-120" target="45Yy-R2dAYlG4YcCM_-h-157">
          <mxGeometry width="160" relative="1" as="geometry">
            <mxPoint x="480" y="960" as="sourcePoint" />
            <mxPoint x="560" y="960" as="targetPoint" />
          </mxGeometry>
        </mxCell>
        <mxCell id="_SVUlnc3Oly2EVvix183-44" style="rounded=0;orthogonalLoop=1;jettySize=auto;html=1;exitX=1;exitY=0.3333333333333333;exitDx=0;exitDy=0;exitPerimeter=0;entryX=0;entryY=0;entryDx=0;entryDy=0;endArrow=none;endFill=0;" parent="1" source="_SVUlnc3Oly2EVvix183-1" target="_SVUlnc3Oly2EVvix183-27" edge="1">
          <mxGeometry relative="1" as="geometry">
            <mxPoint x="-60" y="480.0000000000002" as="sourcePoint" />
          </mxGeometry>
        </mxCell>
        <mxCell id="_SVUlnc3Oly2EVvix183-13" value="" style="endArrow=none;html=1;rounded=0;entryX=0;entryY=0.5;entryDx=0;entryDy=0;exitX=1;exitY=0.3333333333333333;exitDx=0;exitDy=0;exitPerimeter=0;" parent="1" source="_SVUlnc3Oly2EVvix183-1" target="_SVUlnc3Oly2EVvix183-3" edge="1">
          <mxGeometry width="50" height="50" relative="1" as="geometry">
            <mxPoint x="-60" y="480.0000000000002" as="sourcePoint" />
            <mxPoint x="360" y="500" as="targetPoint" />
          </mxGeometry>
        </mxCell>
        <mxCell id="_SVUlnc3Oly2EVvix183-16" value="" style="endArrow=none;html=1;rounded=0;exitX=1;exitY=0.3333333333333333;exitDx=0;exitDy=0;exitPerimeter=0;entryX=0;entryY=0.5;entryDx=0;entryDy=0;" parent="1" source="_SVUlnc3Oly2EVvix183-1" target="_SVUlnc3Oly2EVvix183-15" edge="1">
          <mxGeometry width="50" height="50" relative="1" as="geometry">
            <mxPoint x="-60" y="480.0000000000002" as="sourcePoint" />
            <mxPoint x="360" y="500" as="targetPoint" />
          </mxGeometry>
        </mxCell>
        <mxCell id="_SVUlnc3Oly2EVvix183-18" value="" style="endArrow=none;html=1;rounded=0;exitX=1;exitY=0.3333333333333333;exitDx=0;exitDy=0;exitPerimeter=0;entryX=0;entryY=0.5;entryDx=0;entryDy=0;" parent="1" source="_SVUlnc3Oly2EVvix183-1" target="_SVUlnc3Oly2EVvix183-14" edge="1">
          <mxGeometry width="50" height="50" relative="1" as="geometry">
            <mxPoint x="-60" y="480.0000000000002" as="sourcePoint" />
            <mxPoint x="360" y="500" as="targetPoint" />
          </mxGeometry>
        </mxCell>
        <mxCell id="45Yy-R2dAYlG4YcCM_-h-160" value="관리자" style="shape=umlActor;verticalLabelPosition=bottom;verticalAlign=top;html=1;outlineConnect=0;" vertex="1" parent="1">
          <mxGeometry x="1300" y="460" width="30" height="60" as="geometry" />
        </mxCell>
        <mxCell id="45Yy-R2dAYlG4YcCM_-h-162" value="로그인" style="ellipse;whiteSpace=wrap;html=1;" vertex="1" parent="1">
          <mxGeometry x="1110" y="460" width="120" height="40" as="geometry" />
        </mxCell>
        <mxCell id="45Yy-R2dAYlG4YcCM_-h-163" value="이벤트 관리" style="ellipse;whiteSpace=wrap;html=1;" vertex="1" parent="1">
          <mxGeometry x="1010" y="920" width="70" height="40" as="geometry" />
        </mxCell>
        <mxCell id="45Yy-R2dAYlG4YcCM_-h-164" value="문의내역" style="ellipse;whiteSpace=wrap;html=1;" vertex="1" parent="1">
          <mxGeometry x="1010" y="790" width="70" height="40" as="geometry" />
        </mxCell>
        <mxCell id="45Yy-R2dAYlG4YcCM_-h-165" value="상품관리" style="ellipse;whiteSpace=wrap;html=1;" vertex="1" parent="1">
          <mxGeometry x="1010" y="620" width="70" height="40" as="geometry" />
        </mxCell>
        <mxCell id="45Yy-R2dAYlG4YcCM_-h-166" value="회원관리" style="ellipse;whiteSpace=wrap;html=1;" vertex="1" parent="1">
          <mxGeometry x="1010" y="520" width="70" height="40" as="geometry" />
        </mxCell>
        <mxCell id="45Yy-R2dAYlG4YcCM_-h-167" value="대시보드" style="ellipse;whiteSpace=wrap;html=1;" vertex="1" parent="1">
          <mxGeometry x="980" y="380" width="70" height="40" as="geometry" />
        </mxCell>
        <mxCell id="45Yy-R2dAYlG4YcCM_-h-168" value="유효성 검사" style="ellipse;whiteSpace=wrap;html=1;movable=1;resizable=1;rotatable=1;deletable=1;editable=1;locked=0;connectable=1;" vertex="1" parent="1">
          <mxGeometry x="1110" y="360" width="120" height="40" as="geometry" />
        </mxCell>
        <mxCell id="45Yy-R2dAYlG4YcCM_-h-169" value="include" style="endArrow=open;endSize=12;dashed=1;html=1;rounded=0;exitX=0.5;exitY=0;exitDx=0;exitDy=0;entryX=0.5;entryY=1;entryDx=0;entryDy=0;" edge="1" parent="1" source="45Yy-R2dAYlG4YcCM_-h-162" target="45Yy-R2dAYlG4YcCM_-h-168">
          <mxGeometry width="160" relative="1" as="geometry">
            <mxPoint x="120" y="370" as="sourcePoint" />
            <mxPoint x="210" y="370" as="targetPoint" />
          </mxGeometry>
        </mxCell>
        <mxCell id="45Yy-R2dAYlG4YcCM_-h-170" value="include" style="endArrow=open;endSize=12;dashed=1;html=1;rounded=0;exitX=0;exitY=0.5;exitDx=0;exitDy=0;entryX=1;entryY=1;entryDx=0;entryDy=0;" edge="1" parent="1" source="45Yy-R2dAYlG4YcCM_-h-162" target="45Yy-R2dAYlG4YcCM_-h-167">
          <mxGeometry x="-0.1111" width="160" relative="1" as="geometry">
            <mxPoint x="1180" y="470" as="sourcePoint" />
            <mxPoint x="1180" y="410" as="targetPoint" />
            <mxPoint as="offset" />
          </mxGeometry>
        </mxCell>
        <mxCell id="45Yy-R2dAYlG4YcCM_-h-171" value="회원 상세" style="ellipse;whiteSpace=wrap;html=1;" vertex="1" parent="1">
          <mxGeometry x="860" y="520" width="70" height="40" as="geometry" />
        </mxCell>
        <mxCell id="45Yy-R2dAYlG4YcCM_-h-172" value="회원 &lt;br&gt;삭제/정지" style="ellipse;whiteSpace=wrap;html=1;" vertex="1" parent="1">
          <mxGeometry x="860" y="430" width="70" height="40" as="geometry" />
        </mxCell>
        <mxCell id="45Yy-R2dAYlG4YcCM_-h-173" value="include" style="endArrow=open;endSize=12;dashed=1;html=1;rounded=0;exitX=0;exitY=0.5;exitDx=0;exitDy=0;entryX=1;entryY=0.5;entryDx=0;entryDy=0;" edge="1" parent="1" source="45Yy-R2dAYlG4YcCM_-h-166" target="45Yy-R2dAYlG4YcCM_-h-171">
          <mxGeometry x="-0.125" width="160" relative="1" as="geometry">
            <mxPoint x="1120" y="490" as="sourcePoint" />
            <mxPoint x="1050" y="490" as="targetPoint" />
            <mxPoint as="offset" />
          </mxGeometry>
        </mxCell>
        <mxCell id="45Yy-R2dAYlG4YcCM_-h-176" value="include" style="endArrow=open;endSize=12;dashed=1;html=1;rounded=0;exitX=0.5;exitY=1;exitDx=0;exitDy=0;edgeStyle=orthogonalEdgeStyle;entryX=1;entryY=0.5;entryDx=0;entryDy=0;" edge="1" parent="1" source="45Yy-R2dAYlG4YcCM_-h-162" target="45Yy-R2dAYlG4YcCM_-h-166">
          <mxGeometry x="0.2727" width="160" relative="1" as="geometry">
            <mxPoint x="1120" y="580" as="sourcePoint" />
            <mxPoint x="1050" y="580" as="targetPoint" />
            <mxPoint as="offset" />
          </mxGeometry>
        </mxCell>
        <mxCell id="45Yy-R2dAYlG4YcCM_-h-177" value="include" style="endArrow=open;endSize=12;dashed=1;html=1;rounded=0;exitX=0.5;exitY=0;exitDx=0;exitDy=0;entryX=0.5;entryY=1;entryDx=0;entryDy=0;" edge="1" parent="1" source="45Yy-R2dAYlG4YcCM_-h-171" target="45Yy-R2dAYlG4YcCM_-h-172">
          <mxGeometry x="-0.1111" width="160" relative="1" as="geometry">
            <mxPoint x="1040" y="490" as="sourcePoint" />
            <mxPoint x="970" y="490" as="targetPoint" />
            <mxPoint as="offset" />
          </mxGeometry>
        </mxCell>
        <mxCell id="45Yy-R2dAYlG4YcCM_-h-178" style="rounded=0;orthogonalLoop=1;jettySize=auto;html=1;exitX=1;exitY=0.5;exitDx=0;exitDy=0;entryX=0;entryY=0.3333333333333333;entryDx=0;entryDy=0;entryPerimeter=0;endArrow=none;endFill=0;" edge="1" parent="1" source="45Yy-R2dAYlG4YcCM_-h-162" target="45Yy-R2dAYlG4YcCM_-h-160">
          <mxGeometry relative="1" as="geometry" />
        </mxCell>
        <mxCell id="45Yy-R2dAYlG4YcCM_-h-179" value="include" style="endArrow=open;endSize=12;dashed=1;html=1;rounded=0;exitX=0.5;exitY=1;exitDx=0;exitDy=0;edgeStyle=orthogonalEdgeStyle;entryX=1;entryY=0.5;entryDx=0;entryDy=0;" edge="1" parent="1" source="45Yy-R2dAYlG4YcCM_-h-162" target="45Yy-R2dAYlG4YcCM_-h-165">
          <mxGeometry x="0.5652" width="160" relative="1" as="geometry">
            <mxPoint x="1180" y="510" as="sourcePoint" />
            <mxPoint x="1090" y="550" as="targetPoint" />
            <mxPoint as="offset" />
          </mxGeometry>
        </mxCell>
        <mxCell id="45Yy-R2dAYlG4YcCM_-h-180" value="include" style="endArrow=open;endSize=12;dashed=1;html=1;rounded=0;exitX=0.5;exitY=1;exitDx=0;exitDy=0;edgeStyle=orthogonalEdgeStyle;entryX=1;entryY=0.5;entryDx=0;entryDy=0;" edge="1" parent="1" source="45Yy-R2dAYlG4YcCM_-h-162" target="45Yy-R2dAYlG4YcCM_-h-164">
          <mxGeometry x="0.697" width="160" relative="1" as="geometry">
            <mxPoint x="1180" y="510" as="sourcePoint" />
            <mxPoint x="1090" y="650" as="targetPoint" />
            <mxPoint as="offset" />
          </mxGeometry>
        </mxCell>
        <mxCell id="45Yy-R2dAYlG4YcCM_-h-181" value="include" style="endArrow=open;endSize=12;dashed=1;html=1;rounded=0;exitX=0.5;exitY=1;exitDx=0;exitDy=0;edgeStyle=orthogonalEdgeStyle;entryX=1;entryY=0.5;entryDx=0;entryDy=0;" edge="1" parent="1" source="45Yy-R2dAYlG4YcCM_-h-162" target="45Yy-R2dAYlG4YcCM_-h-163">
          <mxGeometry x="0.7674" width="160" relative="1" as="geometry">
            <mxPoint x="1180" y="510" as="sourcePoint" />
            <mxPoint x="1090" y="750" as="targetPoint" />
            <mxPoint as="offset" />
          </mxGeometry>
        </mxCell>
        <mxCell id="45Yy-R2dAYlG4YcCM_-h-182" value="상품상세" style="ellipse;whiteSpace=wrap;html=1;" vertex="1" parent="1">
          <mxGeometry x="860" y="620" width="70" height="40" as="geometry" />
        </mxCell>
        <mxCell id="45Yy-R2dAYlG4YcCM_-h-183" value="include" style="endArrow=open;endSize=12;dashed=1;html=1;rounded=0;exitX=0;exitY=0.5;exitDx=0;exitDy=0;entryX=1;entryY=0.5;entryDx=0;entryDy=0;" edge="1" parent="1" source="45Yy-R2dAYlG4YcCM_-h-165" target="45Yy-R2dAYlG4YcCM_-h-182">
          <mxGeometry x="-0.1304" width="160" relative="1" as="geometry">
            <mxPoint x="1020" y="520" as="sourcePoint" />
            <mxPoint x="940" y="520" as="targetPoint" />
            <mxPoint as="offset" />
          </mxGeometry>
        </mxCell>
        <mxCell id="45Yy-R2dAYlG4YcCM_-h-184" value="상품삭제" style="ellipse;whiteSpace=wrap;html=1;" vertex="1" parent="1">
          <mxGeometry x="860" y="710" width="70" height="40" as="geometry" />
        </mxCell>
        <mxCell id="45Yy-R2dAYlG4YcCM_-h-185" value="include" style="endArrow=open;endSize=12;dashed=1;html=1;rounded=0;exitX=0.5;exitY=1;exitDx=0;exitDy=0;" edge="1" parent="1" source="45Yy-R2dAYlG4YcCM_-h-182" target="45Yy-R2dAYlG4YcCM_-h-184">
          <mxGeometry x="-0.125" width="160" relative="1" as="geometry">
            <mxPoint x="1020" y="520" as="sourcePoint" />
            <mxPoint x="940" y="520" as="targetPoint" />
            <mxPoint as="offset" />
          </mxGeometry>
        </mxCell>
        <mxCell id="45Yy-R2dAYlG4YcCM_-h-186" value="문의 답변" style="ellipse;whiteSpace=wrap;html=1;" vertex="1" parent="1">
          <mxGeometry x="860" y="790" width="70" height="40" as="geometry" />
        </mxCell>
        <mxCell id="45Yy-R2dAYlG4YcCM_-h-187" value="include" style="endArrow=open;endSize=12;dashed=1;html=1;rounded=0;exitX=0;exitY=0.5;exitDx=0;exitDy=0;entryX=1;entryY=0.5;entryDx=0;entryDy=0;" edge="1" parent="1" source="45Yy-R2dAYlG4YcCM_-h-164" target="45Yy-R2dAYlG4YcCM_-h-186">
          <mxGeometry x="-0.1304" width="160" relative="1" as="geometry">
            <mxPoint x="1020" y="650" as="sourcePoint" />
            <mxPoint x="940" y="650" as="targetPoint" />
            <mxPoint as="offset" />
          </mxGeometry>
        </mxCell>
        <mxCell id="45Yy-R2dAYlG4YcCM_-h-188" value="이벤트 등록" style="ellipse;whiteSpace=wrap;html=1;" vertex="1" parent="1">
          <mxGeometry x="860" y="880" width="70" height="40" as="geometry" />
        </mxCell>
        <mxCell id="45Yy-R2dAYlG4YcCM_-h-189" value="이벤트 &lt;br&gt;수정/삭제" style="ellipse;whiteSpace=wrap;html=1;" vertex="1" parent="1">
          <mxGeometry x="860" y="960" width="70" height="40" as="geometry" />
        </mxCell>
        <mxCell id="45Yy-R2dAYlG4YcCM_-h-190" value="include" style="endArrow=open;endSize=12;dashed=1;html=1;rounded=0;exitX=0;exitY=0.5;exitDx=0;exitDy=0;entryX=1;entryY=0.5;entryDx=0;entryDy=0;" edge="1" parent="1" source="45Yy-R2dAYlG4YcCM_-h-163" target="45Yy-R2dAYlG4YcCM_-h-188">
          <mxGeometry x="-0.1304" width="160" relative="1" as="geometry">
            <mxPoint x="1020" y="820" as="sourcePoint" />
            <mxPoint x="940" y="820" as="targetPoint" />
            <mxPoint as="offset" />
          </mxGeometry>
        </mxCell>
        <mxCell id="45Yy-R2dAYlG4YcCM_-h-191" value="include" style="endArrow=open;endSize=12;dashed=1;html=1;rounded=0;exitX=0;exitY=0.5;exitDx=0;exitDy=0;entryX=1;entryY=0.5;entryDx=0;entryDy=0;" edge="1" parent="1" source="45Yy-R2dAYlG4YcCM_-h-163" target="45Yy-R2dAYlG4YcCM_-h-189">
          <mxGeometry x="-0.1304" width="160" relative="1" as="geometry">
            <mxPoint x="1020" y="950" as="sourcePoint" />
            <mxPoint x="940" y="910" as="targetPoint" />
            <mxPoint as="offset" />
          </mxGeometry>
        </mxCell>
      </root>
    </mxGraphModel>
  </diagram>
</mxfile>
